<?xml version="1.0" ?><!DOCTYPE svg  PUBLIC '-//W3C//DTD SVG 1.1//EN'  'http://www.w3.org/Graphics/SVG/1.1/DTD/svg11.dtd'><svg enable-background="new 0 0 128 128" height="128px" id="Layer_1" version="1.1" viewBox="0 0 128 128" width="128px" xml:space="preserve" xmlns="http://www.w3.org/2000/svg" xmlns:xlink="http://www.w3.org/1999/xlink"><g><g><path d="M64,0C39.699,0,20,19.699,20,44s44,84,44,84s44-59.699,44-84S88.301,0,64,0z M28,44    C28,24.148,44.148,8,64,8s36,16.148,36,36c0,13.828-20.008,47.211-36,70.238C48.008,91.211,28,57.828,28,44z M64,24    c-11.047,0-20,8.953-20,20s8.953,20,20,20s20-8.953,20-20S75.047,24,64,24z M64,56c-6.617,0-12-5.383-12-12s5.383-12,12-12    s12,5.383,12,12S70.617,56,64,56z" fill="#E53935"/></g></g></svg>